<?xml version="1.0" encoding="UTF-8"?>
<svg xmlns="http://www.w3.org/2000/svg" xmlns:xlink="http://www.w3.org/1999/xlink" width="73px" height="16px" viewBox="0 0 72 16" version="1.1">
<g id="surface1">
<path style=" stroke:none;fill-rule:nonzero;fill:rgb(0.392157%,0.784314%,0.784314%);fill-opacity:1;" d="M 25.671875 12.472656 L 25.640625 12.472656 L 23.621094 4.167969 L 21.25 4.167969 L 19.242188 12.472656 L 19.210938 12.472656 L 17.34375 4.167969 L 14.847656 4.167969 L 17.988281 15.792969 L 20.34375 15.792969 L 22.417969 7.847656 L 22.457031 7.847656 L 24.53125 15.792969 L 26.902344 15.792969 L 30.035156 4.167969 L 27.539062 4.167969 Z M 55.472656 3.980469 C 52.5 3.980469 50.722656 5.964844 50.722656 9.296875 L 50.722656 10.699219 C 50.722656 14.066406 52.492188 15.988281 55.464844 15.988281 C 58.449219 15.988281 59.9375 14.117188 59.9375 12.019531 L 59.9375 11.808594 L 57.695312 11.808594 C 57.695312 13.007812 57.117188 13.945312 55.507812 13.945312 C 53.886719 13.945312 53.09375 12.914062 53.09375 10.699219 L 53.09375 9.296875 C 53.09375 7.109375 53.894531 6.007812 55.492188 6.007812 C 56.984375 6.007812 57.695312 7.03125 57.695312 8.179688 L 59.9375 8.179688 L 59.9375 8.0625 C 59.9375 5.796875 58.265625 3.980469 55.472656 3.980469 Z M 33.808594 4.167969 L 30.175781 15.792969 L 32.511719 15.792969 L 33.328125 12.863281 L 36.898438 12.863281 L 37.703125 15.792969 L 40.207031 15.792969 L 36.578125 4.167969 Z M 33.828125 11.074219 L 35.117188 6.460938 L 35.140625 6.460938 L 36.40625 11.074219 Z M 69.371094 4.167969 L 69.371094 8.835938 L 64.761719 8.835938 L 64.761719 4.167969 L 62.421875 4.167969 L 62.421875 15.792969 L 64.761719 15.792969 L 64.761719 10.835938 L 69.371094 10.835938 L 69.371094 15.792969 L 71.71875 15.792969 L 71.71875 4.167969 Z M 40.164062 6.179688 L 43.519531 6.179688 L 43.519531 15.792969 L 45.847656 15.792969 L 45.847656 6.179688 L 49.210938 6.179688 L 49.210938 4.167969 L 40.164062 4.167969 Z M 10.464844 8.566406 C 10.445312 6.5625 12.054688 5.597656 12.125 5.550781 C 11.214844 4.164062 9.804688 4.011719 9.308594 3.972656 C 8.042969 3.878906 6.96875 4.703125 6.367188 4.703125 C 5.757812 4.703125 4.820312 3.996094 3.828125 4.015625 C 2.519531 4.035156 1.316406 4.796875 0.644531 6.003906 C -0.710938 8.429688 0.296875 12.023438 1.617188 13.992188 C 2.265625 14.953125 3.035156 16.039062 4.046875 16 C 5.023438 15.960938 5.390625 15.347656 6.570312 15.347656 C 7.746094 15.347656 8.078125 16 9.109375 15.976562 C 10.15625 15.960938 10.820312 14.996094 11.464844 14.027344 C 12.207031 12.914062 12.511719 11.832031 12.527344 11.773438 C 12.503906 11.765625 10.484375 10.964844 10.464844 8.566406 Z M 8.527344 2.675781 C 9.0625 2.003906 9.425781 1.070312 9.328125 0.144531 C 8.550781 0.175781 7.617188 0.675781 7.058594 1.34375 C 6.5625 1.9375 6.125 2.886719 6.246094 3.796875 C 7.109375 3.867188 7.988281 3.34375 8.527344 2.675781 Z M 8.527344 2.675781 "/>
</g>
</svg>
